<svg id="Layer_1" enable-background="new 0 0 512 512" height="512" viewBox="0 0 512 512" width="512" xmlns="http://www.w3.org/2000/svg"><g><path d="m483.312 10h-30.312c-9.386 0-9.813 15 0 15h30.312c7.547 0 13.688 6.141 13.688 13.688v188.106h-257.687v-46.972c0-8.505-6.919-15.424-15.424-15.424h-137.649v-125.71c0-7.547 6.141-13.688 13.688-13.688h310.072c9.386 0 9.813-15 0-15h-310.072c-15.819 0-28.688 12.87-28.688 28.688v125.711h-55.816c-8.505 0-15.424 6.919-15.424 15.424v269.752c0 8.506 6.919 15.425 15.424 15.425h156.659v14.557c0 9.923 6.545 18.356 15.586 21.312.118.039.234.082.354.119.041.013.083.023.123.035 2.083.634 4.291.978 6.579.978h81.88c2.275 0 4.471-.341 6.545-.968.053-.016.107-.029.16-.046.107-.033.211-.072.317-.106 9.059-2.945 15.62-11.388 15.62-21.323v-112.977h87.929c9.386 0 9.813-15 0-15h-30.828l-10.348-45.033h137.311c15.625 0 28.688-13.025 28.688-28.688v-239.172c.001-15.819-12.868-28.688-28.687-28.688zm13.688 231.794v36.051c0 7.512-6.18 13.702-13.673 13.702h-184.131c-.746-11.815-10.591-21.2-22.591-21.2h-37.292v-28.553zm-220.395 43.554c4.214 0 7.642 3.428 7.642 7.641v161.91h-97.164v-161.91c0-4.213 3.428-7.642 7.642-7.642h81.88zm-261.605 164.228c.424-.427-.813-270.268.423-270.176.001-.001 208.466-.001 208.466-.001.234 0 .424.19.424.424v90.525h-12.531v-71.015c0-4.142-3.358-7.5-7.5-7.5h-169.251c-4.142 0-7.5 3.358-7.5 7.5v123.667c0 9.385 15 9.813 15 0v-116.167h154.251v63.515c-12.988-.547-24.699 9.197-24.699 22.642v108.904h-129.552v-37.412c0-9.385-15-9.813-15 0v44.912c0 4.142 3.358 7.5 7.5 7.5h137.052v33.106c-.426-.422-157.173.808-157.083-.424zm179.768 37.424c-.781 0-1.534-.114-2.244-.325-.015-.005-.031-.009-.046-.013-.038-.012-.075-.025-.113-.037-3.061-.997-5.281-3.877-5.281-7.266v-9.46h97.164v9.46c0 3.39-2.219 6.269-5.281 7.267-.038.012-.075.026-.113.037-.016.005-.032.009-.048.014-.71.21-1.463.324-2.243.324h-81.795zm146.189-135.419h-41.71v-45.033h31.362z"/><path d="m127.46 425.793h-15.606c-9.931.344-9.923 14.659 0 15h15.606c9.931-.344 9.923-14.659 0-15z"/><path d="m229.054 307.992h13.223c9.931-.344 9.923-14.659 0-15h-13.223c-9.931.344-9.924 14.659 0 15z"/></g></svg>