<svg id="Capa_1" enable-background="new 0 0 512 512" height="512" viewBox="0 0 512 512" width="512" xmlns="http://www.w3.org/2000/svg"><g><path d="m29.36 89c0 12.407 10.121 22.5 22.561 22.5s22.56-10.093 22.56-22.5-10.12-22.5-22.56-22.5-22.561 10.093-22.561 22.5zm30.121 0c0 4.136-3.392 7.5-7.561 7.5s-7.56-3.364-7.56-7.5 3.392-7.5 7.561-7.5 7.56 3.364 7.56 7.5z"/><path d="m139.744 89c0-12.407-10.121-22.5-22.561-22.5s-22.56 10.093-22.56 22.5 10.121 22.5 22.561 22.5 22.56-10.093 22.56-22.5zm-30.121 0c0-4.136 3.392-7.5 7.561-7.5s7.561 3.364 7.561 7.5-3.392 7.5-7.561 7.5-7.561-3.364-7.561-7.5z"/><path d="m203.125 89c0-12.407-10.121-22.5-22.561-22.5s-22.561 10.093-22.561 22.5 10.121 22.5 22.561 22.5 22.561-10.093 22.561-22.5zm-30.122 0c0-4.136 3.392-7.5 7.561-7.5s7.561 3.364 7.561 7.5-3.392 7.5-7.561 7.5-7.561-3.364-7.561-7.5z"/><path d="m458.809 111.5c12.439 0 22.561-10.093 22.561-22.5s-10.121-22.5-22.561-22.5h-210.849c-12.44 0-22.561 10.093-22.561 22.5s10.121 22.5 22.561 22.5zm-218.41-22.5c0-4.136 3.392-7.5 7.561-7.5h210.849c4.169 0 7.561 3.364 7.561 7.5s-3.392 7.5-7.561 7.5h-210.849c-4.169 0-7.561-3.364-7.561-7.5z"/><path d="m484.5 34h-391.5c-4.142 0-7.5 3.358-7.5 7.5s3.358 7.5 7.5 7.5h391.5c6.893 0 12.5 5.607 12.5 12.5v64.5h-482v-64.5c0-6.893 5.607-12.5 12.5-12.5h30.5c4.142 0 7.5-3.358 7.5-7.5s-3.358-7.5-7.5-7.5h-30.5c-15.164 0-27.5 12.336-27.5 27.5v389c0 15.164 12.336 27.5 27.5 27.5h457c15.164 0 27.5-12.336 27.5-27.5v-48.5c0-4.142-3.357-7.5-7.5-7.5s-7.5 3.358-7.5 7.5v48.5c0 6.893-5.607 12.5-12.5 12.5h-457c-6.893 0-12.5-5.607-12.5-12.5v-309.5h482v226c0 4.142 3.357 7.5 7.5 7.5s7.5-3.358 7.5-7.5v-305.5c0-15.164-12.337-27.5-27.5-27.5z"/><path d="m373.5 218.5h-57.5c-4.143 0-7.5 3.358-7.5 7.5s3.357 7.5 7.5 7.5h57.5c9.649 0 17.5-7.851 17.5-17.5v-40c0-9.649-7.851-17.5-17.5-17.5h-234c-9.649 0-17.5 7.851-17.5 17.5v40c0 9.649 7.851 17.5 17.5 17.5h141.5c4.143 0 7.5-3.358 7.5-7.5s-3.357-7.5-7.5-7.5h-141.5c-1.378 0-2.5-1.122-2.5-2.5v-40c0-1.378 1.122-2.5 2.5-2.5h234c1.379 0 2.5 1.122 2.5 2.5v40c0 1.378-1.121 2.5-2.5 2.5z"/><path d="m256 251c-27.294 0-49.5 22.206-49.5 49.5s22.206 49.5 49.5 49.5 49.5-22.206 49.5-49.5-22.206-49.5-49.5-49.5zm0 84c-19.023 0-34.5-15.477-34.5-34.5s15.477-34.5 34.5-34.5 34.5 15.477 34.5 34.5-15.477 34.5-34.5 34.5z"/><path d="m395 251c-27.294 0-49.5 22.206-49.5 49.5s22.206 49.5 49.5 49.5 49.5-22.206 49.5-49.5-22.206-49.5-49.5-49.5zm0 84c-19.023 0-34.5-15.477-34.5-34.5s15.477-34.5 34.5-34.5 34.5 15.477 34.5 34.5-15.477 34.5-34.5 34.5z"/><path d="m117 251c-27.294 0-49.5 22.206-49.5 49.5s22.206 49.5 49.5 49.5c6.541 0 12.899-1.258 18.9-3.738 3.828-1.583 5.648-5.968 4.066-9.796-1.583-3.829-5.968-5.649-9.796-4.066-4.175 1.725-8.606 2.6-13.17 2.6-19.023 0-34.5-15.477-34.5-34.5s15.477-34.5 34.5-34.5 34.5 15.477 34.5 34.5c0 3.648-.565 7.237-1.679 10.667-1.279 3.94.877 8.17 4.817 9.45 3.941 1.28 8.171-.878 9.45-4.817 1.601-4.929 2.412-10.077 2.412-15.3 0-27.294-22.206-49.5-49.5-49.5z"/><path d="m157 365h-70c-4.142 0-7.5 3.358-7.5 7.5s3.358 7.5 7.5 7.5h70c4.142 0 7.5-3.358 7.5-7.5s-3.358-7.5-7.5-7.5z"/><path d="m157 395h-80c-4.142 0-7.5 3.358-7.5 7.5s3.358 7.5 7.5 7.5h80c4.142 0 7.5-3.358 7.5-7.5s-3.358-7.5-7.5-7.5z"/><path d="m157 425h-80c-4.142 0-7.5 3.358-7.5 7.5s3.358 7.5 7.5 7.5h80c4.142 0 7.5-3.358 7.5-7.5s-3.358-7.5-7.5-7.5z"/><path d="m296 365h-70c-4.142 0-7.5 3.358-7.5 7.5s3.358 7.5 7.5 7.5h70c4.143 0 7.5-3.358 7.5-7.5s-3.357-7.5-7.5-7.5z"/><path d="m296 395h-80c-4.142 0-7.5 3.358-7.5 7.5s3.358 7.5 7.5 7.5h80c4.143 0 7.5-3.358 7.5-7.5s-3.357-7.5-7.5-7.5z"/><path d="m296 425h-80c-4.142 0-7.5 3.358-7.5 7.5s3.358 7.5 7.5 7.5h80c4.143 0 7.5-3.358 7.5-7.5s-3.357-7.5-7.5-7.5z"/><path d="m435 365h-70c-4.143 0-7.5 3.358-7.5 7.5s3.357 7.5 7.5 7.5h70c4.143 0 7.5-3.358 7.5-7.5s-3.357-7.5-7.5-7.5z"/><path d="m435 395h-80c-4.143 0-7.5 3.358-7.5 7.5s3.357 7.5 7.5 7.5h80c4.143 0 7.5-3.358 7.5-7.5s-3.357-7.5-7.5-7.5z"/><path d="m435 425h-80c-4.143 0-7.5 3.358-7.5 7.5s3.357 7.5 7.5 7.5h80c4.143 0 7.5-3.358 7.5-7.5s-3.357-7.5-7.5-7.5z"/></g></svg>